<?xml version="1.0" encoding="UTF-8"?>
<svg xmlns="http://www.w3.org/2000/svg" version="1.1" viewBox="0 0 1920 672.91">
  <defs>
    <style>
      .cls-1 {
        fill: #0d2939;
      }

      .cls-2 {
        fill: #ff8409;
      }
    </style>
  </defs>
  <!-- Generator: Adobe Illustrator 28.7.1, SVG Export Plug-In . SVG Version: 1.2.0 Build 142)  -->
  <g>
    <g id="Capa_1">
      <g>
        <path class="cls-2" d="M1646.57,388.4c-11.37-1.53-21.06-4.03-28.77-6.53-14.27-8.45-23.48-17.1-29.14-23.22-11.97-12.95-13.9-20.94-32.19-50.87-9.87-16.15-14.81-24.23-19.34-29.66-20.49-24.55-43.59-36.16-50.36-39.37-11.75-5.56-21.62-8.36-25.79-9.46-12.27-3.24-25.26-4.97-38.7-4.97v224.2h50.03c.03-42.46.06-84.93.09-127.39,0-1.44,0-2.87,0-4.31,1.15-6.39,7.31-11.28,14.76-11.28,3.48,0,6.67,1.07,9.21,2.86,1.99,2.43,3.74,4.9,5.34,7.46,6.37,10.19,10.44,21.68,18.35,36.33,3.55,6.57,12.59,23.1,27.51,40.02,8.58,9.74,23.05,25.86,46.47,38.32,31.17,16.58,62.6,18.39,80.48,17.97v-58.71c-7.81.25-17.3.02-27.94-1.42Z"/>
        <path class="cls-1" d="M853.85,283.71h166.53v-59.38h-433.81c-38.74,0-67.35,23.47-71.28,59.38-.31,2.79-.48,5.65-.48,8.59,0,40.02,30.01,67.62,71.76,67.62h98.67c4.04,0,7.55,1.29,10.14,3.65,4.42,4.03,4.62,9.49,4.69,11.88.08,2.58.26,8.06-3.72,11.4-2.15,1.8-4.62,2.24-6.01,2.36h-207.99c-3.26-.4-6.82-1.04-10.62-2.1-11.35-3.19-19.87-8.73-32.59-17.01-3.17-2.07-7.63-5.09-14.37-8.53-7.52-3.83-15.46-6.94-23.74-9.25-11.12-3.11-22.83-4.77-34.94-4.77-6.11,0-12.11.43-17.99,1.25l36.93-71.26,1.55-2.99c1.76-2.54,4.37-4.43,7.42-5.28h7.24c3.09.86,5.74,2.8,7.5,5.38l1.39,2.65,10.34,19.77,24.54,46.95c13.32,11.92,30.9,19.17,50.18,19.17,3.38,0,6.69-.24,9.95-.68l-65.21-125.75-6.44-12.43h-71.73l-26.82,51.73-53.31,102.8-36.15,69.71c19.96-.03,39.93-.06,59.89-.08,2-6.64,8.11-23.81,24.43-36.2.9-.69,1.82-1.36,2.78-2.02,3.88-2.62,12.65-8.41,25.45-10.07,10.95-1.42,19.39.9,26.01,2.8,9.56,2.73,14.49,5.94,38.87,20.41,14.14,8.4,21.22,12.6,22.37,13.14,22.61,10.67,40.56,11.79,47.2,11.98,1.05.03,1.99.04,2.85.04h192.66c38.86,0,67.4-23.24,71.56-59.38.35-3.01.54-6.09.54-9.28,0-40.02-30.01-67.96-72.11-67.96h-98.67c-3.95,0-7.32-1.23-9.81-3.46-4.73-4.22-4.69-10.13-4.68-11.72.02-1.77.08-7.51,4.47-10.9,2-1.54,4.13-2.01,5.4-2.17h199.81v164.87h60.04v-74.97h174.82v-55.73h-174.82v-24.22c0-6.63,2.99-9.95,9.29-9.95Z"/>
        <path class="cls-2" d="M1279.77,224.84h-32.36c-35.38,0-65.8,12.03-86.94,32.86-1.45,1.43-2.86,2.91-4.23,4.43-7,3.95-13.07,4.63-16.29,4.74-16.17.54-31.21-10.81-35.48-23-.81-2.32-.54-2.53-1.36-4.51-3.82-9.26-13.01-15.02-24.54-15.02h-7.25c-15.35,0-26.53,10.1-26.53,25.07s11.18,25.07,26.53,25.07h7.25c1.67,0,3.28-.14,4.84-.38,2.95-.44,5.7-1.28,8.18-2.49,1.45-.32,3.61-.66,6.21-.55,9.78.39,16.54,6.69,20.19,10.08,8.47,7.88,11.8,17.24,13.14,22.23.19,2.55.26,5.46.08,8.64-.22,3.86-.76,7.3-1.4,10.21,0,0-.82,7.51-.82,14.51,0,66.78,49.91,111.87,118.41,111.87h32.36c68.15,0,118.07-45.09,118.07-111.87s-49.91-111.87-118.07-111.87ZM1283.9,390.75h-40.62c-31.67,0-54.39-22.03-54.39-54.04s23.06-54.39,54.39-54.39h40.62c31.32,0,54.04,22.03,54.04,54.39s-22.72,54.04-54.04,54.04Z"/>
        <path class="cls-2" d="M1044.8,293.01h2.61c31.82,0,57.62,25.8,57.62,57.62v97.94h-60.24v-155.57Z"/>
        <path class="cls-2" d="M1624.43,224.33h50.08s0,130.58,0,130.58h-9.38c-22.47,0-40.69-18.22-40.69-40.69v-89.88Z"/>
      </g>
    </g>
  </g>
</svg>